<svg xmlns="http://www.w3.org/2000/svg" width="36.653" height="42.067" viewBox="0 0 36.653 42.067"><defs><style>.a{fill:#ff7272;}.b{fill:#ccdce4;}.c{fill:#abbac2;}.d{fill:#d7e6eb;}.e{fill:#d63434;}</style></defs><path class="a" d="M88.725,66.067V29.8L88,24h25.385l-.725,5.8V66.067Z" transform="translate(-88 -24)"/><path class="b" d="M88.725,29.8H112.66l.725-5.8H88Z" transform="translate(-88 -24)"/><path class="c" d="M96,88h23.935v2.9H96Z" transform="translate(-95.275 -82.198)"/><path class="b" d="M96,120h23.935v5.8H96Z" transform="translate(-95.275 -111.296)"/><path class="b" d="M96,416h23.935v6.528H96Z" transform="translate(-95.275 -380.46)"/><circle class="d" cx="12" cy="12" r="12" transform="translate(12.653 18)"/><g transform="translate(15.231 20.309)"><path class="c" d="M345.577,249.567a8.116,8.116,0,0,0-2.661,0l-.24-1.431a9.568,9.568,0,0,1,3.141,0Z" transform="translate(-334.818 -248.006)"/><path class="c" d="M294.64,257.206l-.923-1.119a9.53,9.53,0,0,1,2.72-1.571l.507,1.359a8.074,8.074,0,0,0-2.3,1.331Z" transform="translate(-290.297 -253.926)"/><path class="c" d="M263.875,288.945l-1.359-.507a9.531,9.531,0,0,1,1.571-2.72l1.119.923a8.073,8.073,0,0,0-1.331,2.3Z" transform="translate(-261.925 -282.298)"/><path class="c" d="M256.13,337.817a9.526,9.526,0,0,1,0-3.141l1.431.24a8.079,8.079,0,0,0,0,2.661Z" transform="translate(-256 -326.818)"/><path class="c" d="M264.087,385.91a9.53,9.53,0,0,1-1.571-2.72l1.359-.507a8.075,8.075,0,0,0,1.331,2.3Z" transform="translate(-261.925 -370.472)"/><path class="c" d="M296.437,422.508a9.531,9.531,0,0,1-2.72-1.571l.923-1.119a8.074,8.074,0,0,0,2.3,1.331Z" transform="translate(-290.297 -404.241)"/><path class="c" d="M344.231,440.344a9.508,9.508,0,0,1-1.572-.131l.242-1.43a8.116,8.116,0,0,0,2.661,0l.24,1.431a9.506,9.506,0,0,1-1.571.13Z" transform="translate(-334.802 -421.487)"/><path class="c" d="M391.189,422.508l-.507-1.359a8.075,8.075,0,0,0,2.3-1.331l.923,1.119A9.53,9.53,0,0,1,391.189,422.508Z" transform="translate(-378.471 -404.241)"/><path class="c" d="M428.937,385.908l-1.119-.923a8.074,8.074,0,0,0,1.331-2.3l1.359.507a9.53,9.53,0,0,1-1.571,2.72Z" transform="translate(-412.241 -370.47)"/><path class="c" d="M448.214,337.817l-1.431-.24a8.079,8.079,0,0,0,0-2.661l1.431-.24A9.526,9.526,0,0,1,448.214,337.817Z" transform="translate(-429.486 -326.818)"/><path class="c" d="M429.149,288.945a8.075,8.075,0,0,0-1.331-2.3l1.119-.923a9.53,9.53,0,0,1,1.571,2.72Z" transform="translate(-412.241 -282.298)"/><path class="c" d="M392.985,257.206a8.074,8.074,0,0,0-2.3-1.331l.507-1.359a9.53,9.53,0,0,1,2.72,1.571Z" transform="translate(-378.47 -253.926)"/></g><path class="e" d="M120,208h1.451v1.451H120Z" transform="translate(-117.099 -191.318)"/><path class="e" d="M136,256h1.451v1.451H136Z" transform="translate(-131.648 -234.966)"/><path class="e" d="M120,288h7.253v1.451H120Z" transform="translate(-117.099 -264.065)"/><path class="e" d="M120,320h7.253v1.451H120Z" transform="translate(-117.099 -293.164)"/><path class="e" d="M120,352h7.253v1.451H120Z" transform="translate(-117.099 -322.263)"/><path class="e" d="M168,256h4.352v1.451H168Z" transform="translate(-160.747 -234.966)"/></svg>