<svg xmlns="http://www.w3.org/2000/svg" width="18.858" height="42.067" viewBox="0 0 18.858 42.067"><defs><style>.a{fill:#ccdce4;}.b{fill:#92a5af;}.c{fill:#ff7272;}.d{fill:#d63434;}.e{fill:#35505d;}</style></defs><path class="a" d="M258.154,236.334v11.6H248v-11.6l.47-7.986a4.615,4.615,0,0,1,9.215,0Z" transform="translate(-239.296 -205.871)"/><path class="b" d="M250.9,243v12.373a2.883,2.883,0,0,1-.39,1.451H248v-11.6l.47-7.986a4.6,4.6,0,0,1,1.889-3.459Z" transform="translate(-239.296 -214.752)"/><path class="c" d="M248,456h10.154v2.9H248Z" transform="translate(-239.296 -416.834)"/><path class="d" d="M248,456h2.9v1.451a1.451,1.451,0,0,1-1.451,1.451H248Z" transform="translate(-239.296 -416.834)"/><path class="c" d="M176,56h5.8V71.231H176Z" transform="translate(-173.824 -53.099)"/><path class="a" d="M162.154,212.33v12.33a1.451,1.451,0,0,1-1.451,1.451h-7.253A1.451,1.451,0,0,1,152,224.66V212.33l.725-12.33h8.7Z" transform="translate(-152 -184.043)"/><path class="e" d="M200,392h1.451v1.451H200Z" transform="translate(-195.648 -358.636)"/><path class="e" d="M192,424h2.9v1.451H192Z" transform="translate(-188.373 -387.735)"/><path class="c" d="M152,336h10.154v2.9H152Z" transform="translate(-152 -307.713)"/><path class="d" d="M181.8,24v2.9a2.9,2.9,0,1,1-2.9-2.9Z" transform="translate(-173.824 -24)"/></svg>