<svg xmlns="http://www.w3.org/2000/svg" width="18.858" height="42.793" viewBox="0 0 18.858 42.793"><defs><style>.a{fill:#ccdce4;}.b{fill:#ff7272;}.c{fill:#d63434;}.d{fill:#abbac2;}</style></defs><path class="a" d="M240,24h2.9v7.253H240Z" transform="translate(-232.022 -23.275)"/><path class="b" d="M209.451,96h5.8a1.451,1.451,0,0,1,1.451,1.451v2.9H208v-2.9A1.451,1.451,0,0,1,209.451,96Z" transform="translate(-202.923 -88.747)"/><path class="a" d="M165.781,144l2.643,2.6a8.16,8.16,0,0,1,2.434,5.813v21.32a1.451,1.451,0,0,1-1.451,1.451H153.451A1.451,1.451,0,0,1,152,173.737v-21.32a8.16,8.16,0,0,1,2.434-5.813l2.643-2.6Z" transform="translate(-152 -132.395)"/><path class="b" d="M194.176,229.759A2.176,2.176,0,0,1,192,227.583V212.79a4.561,4.561,0,0,1,1.352-3.229A5.428,5.428,0,0,1,197.161,208h1.283a5.428,5.428,0,0,1,3.809,1.561,4.534,4.534,0,0,1,1.352,3.23v14.792a2.176,2.176,0,0,1-2.176,2.176Z" transform="translate(-188.373 -190.593)"/><g transform="translate(6.875 20.69)"><ellipse class="c" cx="2.5" cy="3" rx="2.5" ry="3" transform="translate(0.297 0.31)"/><path class="c" d="M248,336h1.451v1.451H248Z" transform="translate(-246.171 -327.678)"/><path class="c" d="M240,368h2.9v1.451H240Z" transform="translate(-238.896 -356.777)"/></g><path class="d" d="M179.369,18.689l-1.026-1.026,1.451-1.451a.725.725,0,0,1,.513-.212h8.7v1.451h-8.4Z" transform="translate(-175.955 -16)"/></svg>